<svg width="512" height="512" viewBox="0 0 512 512" fill="none" xmlns="http://www.w3.org/2000/svg">
<g clip-path="url(#clip0_101_2)">
<rect width="512" height="512" fill="white"/>
<rect width="512" height="512" fill="#111111"/>
<path d="M310.644 191.393C309.451 179.362 304.33 170.016 295.282 163.354C286.233 156.692 273.954 153.361 258.442 153.361C247.903 153.361 239.003 154.852 231.745 157.835C224.486 160.719 218.918 164.746 215.04 169.916C211.262 175.087 209.373 180.953 209.373 187.516C209.174 192.984 210.317 197.757 212.803 201.834C215.388 205.911 218.918 209.44 223.393 212.423C227.867 215.307 233.037 217.842 238.904 220.03C244.77 222.118 251.035 223.908 257.697 225.399L285.14 231.962C298.464 234.945 310.694 238.922 321.83 243.893C332.966 248.865 342.611 254.98 350.765 262.239C358.918 269.497 365.232 278.048 369.707 287.892C374.28 297.736 376.617 309.021 376.716 321.749C376.617 340.442 371.844 356.649 362.398 370.371C353.052 383.993 339.529 394.582 321.83 402.139C304.231 409.597 283.002 413.325 258.144 413.325C233.485 413.325 212.008 409.547 193.712 401.99C175.516 394.433 161.297 383.247 151.056 368.432C140.914 353.517 135.594 335.072 135.097 313.098H197.59C198.286 323.339 201.219 331.891 206.39 338.751C211.66 345.513 218.67 350.634 227.42 354.114C236.269 357.494 246.262 359.185 257.398 359.185C268.336 359.185 277.831 357.594 285.885 354.412C294.039 351.23 300.353 346.805 304.827 341.138C309.302 335.47 311.539 328.957 311.539 321.599C311.539 314.739 309.501 308.972 305.424 304.298C301.447 299.625 295.58 295.648 287.824 292.366C280.168 289.085 270.772 286.102 259.635 283.418L226.376 275.065C200.623 268.801 180.289 259.007 165.374 245.683C150.459 232.359 143.052 214.412 143.151 191.841C143.052 173.347 147.974 157.189 157.917 143.368C167.959 129.547 181.731 118.759 199.231 111.003C216.731 103.247 236.617 99.3693 258.89 99.3693C281.56 99.3693 301.347 103.247 318.251 111.003C335.253 118.759 348.478 129.547 357.924 143.368C367.37 157.189 372.242 173.197 372.54 191.393H310.644Z" fill="white"/>
</g>
<defs>
<clipPath id="clip0_101_2">
<rect width="512" height="512" fill="white"/>
</clipPath>
</defs>
</svg>
